# xmcd
#
# Track frame offsets: 
#        150
#        17569
#        27977
#        48794
#        63199
#        73632
#        87221
#        103133
#        114451
#        128760
#        144009
#        155739
#
# Disc length: 2301 seconds
#
# Revision: 3
# Processed by: cddbd v1.5.2PL0 Copyright (c) Steve Scherf et al.
# Submitted via: ExactAudioCopyFreeDBPlugin 1.0
#
DISCID=9508fb0c
DTITLE=Various Artist - Country Christmas
DYEAR=1999
DGENRE=Country
TTITLE0=Joe Sun - A Country Boy A Long Way From Home
TTITLE1=Marylin Barclay and Daniel T. Coates - Jolly Old St. Nicholas
TTITLE2=Mark Bender - The Gift
TTITLE3=Tina Elton - Merry Christmas Darling
TTITLE4=Daniel T. Coates - How Come Christmas Only Happens Once A Year
TTITLE5=Frank Baum - Wonderland Of Christmas (Instrumental)
TTITLE6=Mark Bender and Daniel T. Coates - Little Drummer Boy
TTITLE7=Suzan Baker - Let It Snow
TTITLE8=Foreign Affairs - Baby King
TTITLE9=Daniel T. Coates - The Christmas Song
TTITLE10=Marylin Barclay and Daniel T. Coates - Jingle Bell Rock
TTITLE11=Mark Bender and Daniel T. Coates &Joe Sun - Silent Night
EXTD=YEAR: 1999
EXTT0=
EXTT1=
EXTT2=
EXTT3=
EXTT4=
EXTT5=
EXTT6=
EXTT7=
EXTT8=
EXTT9=
EXTT10=
EXTT11=
PLAYORDER=
